<?xml version="1.0" standalone="no"?>
<!DOCTYPE svg PUBLIC "-//W3C//DTD SVG 20010904//EN"
 "http://www.w3.org/TR/2001/REC-SVG-20010904/DTD/svg10.dtd">
<svg version="1.0" xmlns="http://www.w3.org/2000/svg"
 width="345.000000pt" height="72.000000pt" viewBox="0 0 345.000000 72.000000"
 preserveAspectRatio="xMidYMid meet">

<g transform="translate(0.000000,72.000000) scale(0.100000,-0.100000)"
fill="#000000" stroke="none">
<path d="M3235 599 c-11 -7 -35 -26 -53 -43 -18 -17 -36 -30 -40 -28 -4 1 -8
-6 -9 -15 -1 -10 -5 -35 -9 -55 -6 -32 -1 -44 35 -99 54 -80 53 -105 -4 -169
-53 -60 -57 -80 -15 -80 64 0 159 125 146 193 -3 18 -24 54 -46 81 -57 69 -51
109 26 156 58 37 29 92 -31 59z"/>
<path d="M687 577 c-37 -13 -73 -29 -80 -36 -8 -8 -13 -65 -15 -179 -4 -202 1
-252 28 -252 25 0 36 23 45 91 6 50 10 56 38 67 18 7 33 9 35 5 1 -5 17 -42
35 -83 25 -57 38 -76 54 -78 43 -6 39 79 -8 171 l-20 37 33 41 c30 37 33 47
33 110 0 60 -3 72 -25 94 -36 36 -74 39 -153 12z m92 -108 c8 -15 11 -36 8
-51 -9 -33 -65 -69 -95 -61 -20 5 -22 12 -22 68 0 70 5 75 60 72 25 -1 38 -9
49 -28z"/>
<path d="M1306 575 c-70 -25 -75 -35 -87 -185 -7 -83 -7 -158 -2 -195 l9 -60
39 3 c134 11 245 137 245 276 -1 143 -80 205 -204 161z m98 -116 c45 -53 46
-99 4 -167 -29 -48 -59 -65 -92 -53 -26 10 -26 12 -26 105 0 123 9 146 54 146
26 0 40 -7 60 -31z"/>
<path d="M1323 455 c-3 -9 -3 -19 1 -22 3 -4 6 1 6 10 0 8 8 18 18 20 16 4 16
5 -1 6 -10 0 -20 -6 -24 -14z"/>
<path d="M1312 320 c0 -19 2 -27 5 -17 2 9 2 25 0 35 -3 9 -5 1 -5 -18z"/>
<path d="M2121 577 c-41 -50 -74 -231 -61 -343 9 -82 14 -94 41 -94 26 0 36
30 45 134 4 56 11 86 19 86 6 0 29 -43 49 -95 72 -182 146 -179 175 5 21 125
8 283 -24 310 -11 9 -18 5 -32 -16 -14 -22 -19 -53 -22 -146 -3 -109 -4 -117
-21 -108 -11 6 -33 54 -56 121 -49 144 -80 184 -113 146z"/>
<path d="M2523 564 c-37 -57 -55 -235 -32 -319 27 -95 140 -152 218 -109 48
26 71 70 80 154 13 128 -26 290 -71 290 -30 0 -33 -26 -13 -121 23 -113 18
-211 -12 -241 -31 -30 -80 -15 -107 32 -23 40 -27 148 -7 232 21 91 -15 144
-56 82z"/>
<path d="M2965 580 c-61 -12 -125 -40 -135 -60 -12 -22 5 -30 61 -30 l39 0 0
-117 c0 -166 10 -253 28 -261 32 -12 42 27 42 157 0 69 3 149 6 176 6 49 8 52
58 75 36 18 52 32 54 48 3 21 0 22 -55 21 -32 -1 -76 -5 -98 -9z"/>
<path d="M151 551 c-35 -49 -55 -145 -55 -266 0 -121 14 -176 39 -155 21 18
34 72 41 178 5 60 11 92 19 92 6 0 19 -35 29 -77 25 -106 55 -183 71 -183 23
0 61 107 80 227 7 44 19 61 30 43 3 -5 15 -65 25 -133 21 -138 27 -157 45
-157 17 0 24 28 31 125 12 150 -25 335 -67 335 -24 0 -66 -54 -96 -125 -40
-94 -47 -95 -77 -12 -32 88 -61 137 -80 137 -8 0 -24 -13 -35 -29z"/>
<path d="M3278 518 c-27 -22 -48 -46 -48 -52 0 -7 23 9 52 36 64 59 61 71 -4
16z"/>
<path d="M2612 515 c0 -16 2 -22 5 -12 2 9 2 23 0 30 -3 6 -5 -1 -5 -18z"/>
<path d="M3060 485 c-14 -8 -20 -14 -14 -15 5 0 19 7 30 15 24 18 16 19 -16 0z"/>
<path d="M2602 450 c0 -14 2 -19 5 -12 2 6 2 18 0 25 -3 6 -5 1 -5 -13z"/>
<path d="M1800 450 c-9 -6 -10 -10 -3 -10 6 0 15 5 18 10 8 12 4 12 -15 0z"/>
<path d="M3033 425 c0 -22 2 -30 4 -17 2 12 2 30 0 40 -3 9 -5 -1 -4 -23z"/>
<path d="M891 409 c-1 -9 -15 -36 -33 -60 -22 -32 -25 -39 -9 -24 28 25 54 72
47 88 -2 7 -5 5 -5 -4z"/>
<path d="M2593 355 c0 -33 2 -45 4 -27 2 18 2 45 0 60 -2 15 -4 0 -4 -33z"/>
<path d="M1750 385 c-20 -24 -6 -28 15 -5 10 11 13 20 8 20 -6 0 -16 -7 -23
-15z"/>
<path d="M1517 309 c-34 -95 -130 -176 -238 -199 l-44 -9 47 4 c63 6 136 44
182 95 39 43 79 123 74 148 -2 7 -11 -10 -21 -39z"/>
<path d="M2822 330 c0 -19 2 -27 5 -17 2 9 2 25 0 35 -3 9 -5 1 -5 -18z"/>
<path d="M2422 310 c0 -19 2 -27 5 -17 2 9 2 25 0 35 -3 9 -5 1 -5 -18z"/>
<path d="M2172 260 c0 -19 2 -27 5 -17 2 9 2 25 0 35 -3 9 -5 1 -5 -18z"/>
<path d="M3306 253 c-7 -47 -70 -130 -116 -155 -19 -10 -29 -18 -21 -18 27 0
80 42 110 87 29 43 50 108 39 119 -3 2 -8 -12 -12 -33z"/>
<path d="M531 244 c0 -11 3 -14 6 -6 3 7 2 16 -1 19 -3 4 -6 -2 -5 -13z"/>
<path d="M2412 240 c0 -14 2 -19 5 -12 2 6 2 18 0 25 -3 6 -5 1 -5 -13z"/>
<path d="M2803 219 c-13 -50 -63 -107 -102 -115 -43 -9 -47 -12 -20 -13 14 -1
41 9 60 22 36 23 83 104 77 133 -2 10 -8 -3 -15 -27z"/>
<path d="M694 226 c-3 -8 -4 -25 -1 -38 3 -18 5 -16 6 9 0 17 7 34 14 36 9 4
9 6 -1 6 -7 1 -15 -5 -18 -13z"/>
<path d="M191 204 c0 -11 3 -14 6 -6 3 7 2 16 -1 19 -3 4 -6 -2 -5 -13z"/>
<path d="M361 199 c-1 -9 -12 -33 -26 -53 -13 -20 -20 -36 -15 -36 13 0 52 79
46 93 -2 7 -5 5 -5 -4z"/>
<path d="M2391 175 c-6 -19 -24 -44 -38 -55 -16 -13 -20 -20 -11 -20 8 0 22 8
31 18 18 20 42 80 35 87 -2 3 -10 -11 -17 -30z"/>
<path d="M2161 174 c0 -11 3 -14 6 -6 3 7 2 16 -1 19 -3 4 -6 -2 -5 -13z"/>
<path d="M935 167 c-23 -17 -12 -37 21 -37 28 0 44 28 23 41 -19 12 -22 11
-44 -4z"/>
<path d="M680 137 c0 -9 -9 -26 -20 -37 -14 -14 -16 -20 -6 -20 15 0 43 57 32
67 -3 3 -6 -1 -6 -10z"/>
<path d="M2142 130 c-7 -11 -8 -20 -3 -20 9 0 24 30 18 36 -1 2 -8 -6 -15 -16z"/>
<path d="M3021 138 c-1 -9 -13 -26 -27 -37 -19 -15 -22 -21 -11 -21 20 0 51
44 44 62 -4 9 -6 7 -6 -4z"/>
<path d="M157 114 c-13 -18 -14 -22 -3 -18 8 3 17 13 20 21 10 25 3 23 -17 -3z"/>
<path d="M881 128 c0 -9 -11 -24 -23 -32 -17 -12 -18 -16 -6 -16 22 0 41 25
35 47 -4 16 -5 16 -6 1z"/>
<path d="M998 118 c-15 -15 -16 -18 -3 -18 9 0 18 7 22 15 8 23 0 24 -19 3z"/>
<path d="M497 104 c-13 -18 -14 -22 -3 -18 8 3 17 13 20 21 10 25 3 23 -17 -3z"/>
</g>
</svg>
